<?xml version="1.0" standalone="no"?>
<!DOCTYPE svg PUBLIC "-//W3C//DTD SVG 20010904//EN"
 "http://www.w3.org/TR/2001/REC-SVG-20010904/DTD/svg10.dtd">
<svg version="1.0" xmlns="http://www.w3.org/2000/svg"
 width="24.000000pt" height="24.000000pt" viewBox="0 0 24.000000 24.000000"
 preserveAspectRatio="xMidYMid meet">

<g transform="translate(0.000000,24.000000) scale(0.100000,-0.100000)"
fill="#fff" stroke="none">
<path d="M16 194 c-11 -10 -16 -34 -16 -74 0 -82 10 -90 120 -90 110 0 120 8
120 90 0 82 -10 90 -120 90 -67 0 -92 -4 -104 -16z m172 0 c25 -5 31 -12 37
-40 3 -19 3 -49 -1 -68 -6 -33 -8 -35 -60 -42 -30 -3 -74 -3 -98 0 -40 6 -44
10 -50 41 -11 54 2 103 28 108 35 7 111 7 144 1z"/>
<path d="M90 125 c0 -38 6 -41 45 -23 33 15 32 24 -5 43 -39 20 -40 20 -40
-20z m34 9 c18 -7 12 -24 -10 -24 -8 0 -14 7 -14 15 0 17 2 18 24 9z"/>
</g>
</svg>
